<svg xmlns="http://www.w3.org/2000/svg" width="16" height="16" viewBox="0 0 16 16" fill="none"><g transform="matrix(1 0 0 1 4.666 4.6665)"><path d="M0 -0.666667C-0.36819 -0.666667 -0.666667 -0.36819 -0.666667 0C-0.666667 0.36819 -0.36819 0.666667 0 0.666667L0 0L0 -0.666667ZM6.66667 0L7.33333 0C7.33333 -0.36819 7.03486 -0.666667 6.66667 -0.666667L6.66667 0ZM6 6.66667C6 7.03486 6.29848 7.33333 6.66667 7.33333C7.03486 7.33333 7.33333 7.03486 7.33333 6.66667L6.66667 6.66667L6 6.66667ZM0 0L0 0.666667L6.66667 0.666667L6.66667 0L6.66667 -0.666667L0 -0.666667L0 0ZM6.66667 0L6 0L6 6.66667L6.66667 6.66667L7.33333 6.66667L7.33333 0L6.66667 0Z" fill="#31a6dd"/></g><g transform="matrix(1 0 0 1 4.666 4.6665)"><path d="M-0.471405 6.19526C-0.731754 6.45561 -0.731754 6.87772 -0.471405 7.13807C-0.211055 7.39842 0.211055 7.39842 0.471405 7.13807L0 6.66667L-0.471405 6.19526ZM7.13807 0.471405C7.39842 0.211055 7.39842 -0.211055 7.13807 -0.471405C6.87772 -0.731754 6.45561 -0.731754 6.19526 -0.471405L6.66667 0L7.13807 0.471405ZM0 6.66667L0.471405 7.13807L7.13807 0.471405L6.66667 0L6.19526 -0.471405L-0.471405 6.19526L0 6.66667Z" fill="#31a6dd"/></g></svg>