<svg xmlns="http://www.w3.org/2000/svg" width="20" height="20" viewBox="0 0 20 20" fill="none"><g transform="matrix(1 0 0 1 5 6)"><path d="M0.692532 3.54528C0.294121 3.1628 -0.338913 3.17572 -0.721387 3.57414C-1.10386 3.97255 -1.09094 4.60558 -0.692532 4.98805L0 4.26667L0.692532 3.54528ZM3.88889 8L3.19636 8.72139C3.4018 8.91862 3.6816 9.01889 3.96555 8.99706C4.2495 8.97523 4.51068 8.83336 4.68356 8.60704L3.88889 8ZM10.7947 0.60704C11.1299 0.168156 11.0459 -0.459412 10.607 -0.794671C10.1682 -1.12993 9.54059 -1.04593 9.20533 -0.60704L10 0L10.7947 0.60704ZM0 4.26667L-0.692532 4.98805L3.19636 8.72139L3.88889 8L4.58142 7.27861L0.692532 3.54528L0 4.26667ZM3.88889 8L4.68356 8.60704L10.7947 0.60704L10 0L9.20533 -0.60704L3.09422 7.39296L3.88889 8Z" fill="#ffffff"/></g></svg>