<svg xmlns="http://www.w3.org/2000/svg" width="14" height="14" viewBox="0 0 14 14" fill="none"><g transform="matrix(0.7071 0.7071 -0.7071 0.7071 7.0703 -1.0703)"><path d="M5.76118 11.5136C5.33432 11.5136 5.05556 11.2038 5.05556 10.7934L5.05556 6.43941L0.749177 6.43941C0.32232 6.43941 0 6.1714 0 5.76101C0 5.35062 0.32232 5.08261 0.749177 5.08261L5.05556 5.08261L5.05556 0.720279C5.05556 0.309887 5.33432 0 5.76118 0C6.18804 0 6.4668 0.309887 6.4668 0.720279L6.4668 5.08261L10.7645 5.08261C11.1913 5.08261 11.5136 5.35062 11.5136 5.76101C11.5136 6.1714 11.1913 6.43941 10.7645 6.43941L6.4668 6.43941L6.4668 10.7934C6.4668 11.2038 6.18804 11.5136 5.76118 11.5136Z" fill-rule="nonzero" fill="#5b6675"/></g></svg>